<?xml version="1.0" encoding="utf-8"?>
<!-- Generator: Adobe Illustrator 16.0.0, SVG Export Plug-In . SVG Version: 6.00 Build 0)  -->
<!DOCTYPE svg PUBLIC "-//W3C//DTD SVG 1.1//EN" "http://www.w3.org/Graphics/SVG/1.1/DTD/svg11.dtd">
<svg version="1.1" id="Layer_1" xmlns="http://www.w3.org/2000/svg" xmlns:xlink="http://www.w3.org/1999/xlink" x="0px" y="0px"
	 width="24px" height="24px" viewBox="0 0 24 24" enable-background="new 0 0 24 24" xml:space="preserve">
<path fill="none" d="M0.284,4.386h24v24h-24V4.386z"/>
<g>
	<polygon points="4.789,13.215 4.789,17.336 12,21.271 19.209,17.336 19.209,13.215 12,17.148 	"/>
	<path d="M12,2.73L0.668,8.91L12,15.09l9.27-5.057v7.116h2.062V8.91L12,2.73z M8.251,5.072l3.136,3.132l-1.266,1.265l-1.87-1.867
		C7.554,6.898,7.554,5.769,8.251,5.072z M15.568,12.39l-0.628,0.631l-3.076-3.077l-3.079,3.071l-0.63-0.629l4.361-4.36
		c-0.315-0.685-0.093-1.645,0.616-2.355c0.86-0.854,2.084-1.015,2.737-0.362c0.655,0.656,0.491,1.882-0.361,2.734
		c-0.712,0.712-1.673,0.934-2.357,0.619l-0.657,0.654L15.568,12.39z"/>
</g>
</svg>
