<?xml version="1.0" encoding="utf-8"?>
<!-- Generator: Adobe Illustrator 16.0.0, SVG Export Plug-In . SVG Version: 6.00 Build 0)  -->
<!DOCTYPE svg PUBLIC "-//W3C//DTD SVG 1.1//EN" "http://www.w3.org/Graphics/SVG/1.1/DTD/svg11.dtd">
<svg version="1.1" id="Layer_1" xmlns="http://www.w3.org/2000/svg" xmlns:xlink="http://www.w3.org/1999/xlink" x="0px" y="0px"
	 width="24px" height="24px" viewBox="0 0 24 24" enable-background="new 0 0 24 24" xml:space="preserve">
<path fill="none" d="M0,0h24v24H0V0z"/>
<path d="M7.284,7.405v2.696L12,12.676l4.715-2.575V7.405L12,9.979L7.284,7.405z M12,0.548L4.589,4.59L12,8.632l6.063-3.307v4.654
	h1.348V4.59L12,0.548z"/>
<g>
	<path d="M9.169,18.096l1.907-1.907l-4.729-4.721c-1.051,1.051-1.051,2.755,0,3.812L9.169,18.096z M13.737,16.877
		c1.03,0.478,2.479,0.143,3.55-0.93c1.287-1.287,1.535-3.132,0.547-4.122c-0.984-0.984-2.83-0.741-4.125,0.545
		c-1.07,1.072-1.406,2.519-0.929,3.549l-6.575,6.575l0.949,0.95l4.642-4.629l4.635,4.636l0.949-0.95l-4.635-4.636L13.737,16.877z"/>
</g>
</svg>
